<?xml version="1.0" standalone="no"?>
<!DOCTYPE svg PUBLIC "-//W3C//DTD SVG 1.1//EN" "http://www.w3.org/Graphics/SVG/1.1/DTD/svg11.dtd" >
<svg xmlns="http://www.w3.org/2000/svg">
<metadata></metadata>
<defs>
<font id="unidinregular" horiz-adv-x="488" >
<font-face units-per-em="1000" ascent="750" descent="-250" />
<missing-glyph horiz-adv-x="500" />
<glyph unicode="&#xd;" horiz-adv-x="500" />
<glyph unicode=" "  horiz-adv-x="500" />
<glyph unicode="&#x09;" horiz-adv-x="500" />
<glyph unicode="&#xa0;" horiz-adv-x="500" />
<glyph unicode="!" horiz-adv-x="176" d="M0 95h95v-95h-95v95zM73 217h-52l-21 502h94z" />
<glyph unicode="#" horiz-adv-x="536" d="M455 429h-87l-23 -150h79v-102h-94l-26 -177h-92l26 177h-92l-26 -177h-92l26 177h-54v102h69l23 150h-61v102h75l29 188h94l-29 -188h90l29 188h94l-29 -188h71v-102zM253 279l23 150h-92l-23 -150h92z" />
<glyph unicode="$" horiz-adv-x="456" d="M282 362q38 -17 57 -44.5t26.5 -55t7.5 -49t-1 -25.5v-2v-2q-2 -38 -18.5 -71t-43.5 -59q-20 -17 -42 -28.5t-45 -18.5v-99h-63v94h-2q-51 4 -93.5 33t-66.5 75l72 27q14 -25 37.5 -40.5t52.5 -18.5v256q-2 0 -2 1t-1 1q-16 7 -33 12.5t-34 13.5q-10 4 -25.5 17t-30.5 34 t-25 51t-9 68v6q4 38 20.5 71t43.5 59q20 19 45 31.5t51 17.5v97h63v-95q50 -5 90 -33.5t63 -73.5l-72 -27q-13 22 -34 37.5t-47 19.5v-257q14 -5 28.5 -10.5t30.5 -12.5zM120 433q9 -6 19 -11.5t21 -10.5v228q-34 -12 -56.5 -40t-26.5 -65v-5q-3 -59 43 -96zM298 191 q1 32 -10 55.5t-34 42.5q-8 5 -15.5 10t-15.5 9v-221q20 8 36 23q17 15 27 36.5t12 44.5z" />
<glyph unicode="&#x26;" horiz-adv-x="657" d="M463 2l-47 60q-38 -30 -84.5 -46t-98.5 -16q-35 0 -69 9q-36 9 -66 29t-51.5 48t-34 62.5t-12.5 72.5q0 57 27.5 105.5t72.5 77.5l33 23l-26 33q-20 20 -30.5 47t-10.5 58q0 32 12 60t32.5 49t48.5 33t60 12t60 -12t49 -33t33 -49t12 -60q0 -38 -16.5 -69t-42.5 -52 l-53 -38l159 -204q13 23 20.5 49t7.5 55v7h91v-7q0 -51 -15.5 -96.5t-43.5 -83.5l97 -124h-114zM218 626q-26 0 -44 -18.5t-18 -44.5q0 -25 13 -41l37 -45l10 7l35 26q13 9 21 22.5t8 30.5q0 26 -18.5 44.5t-43.5 18.5zM238 95q35 0 66 10t57 28l-173 221l-46 -33l-2 -1 q-22 -17 -34.5 -43t-12.5 -56q0 -43 25 -75t63 -44v-2v1l-1 1q13 -4 28.5 -5.5t29.5 -1.5z" />
<glyph unicode="(" horiz-adv-x="284" d="M203 0q-42 0 -78.5 16t-64 43t-44 63t-16.5 77v317q0 42 16 79t43.5 64t64.5 42.5t79 15.5v-94q-23 0 -43 -8.5t-35 -23t-23.5 -34t-8.5 -42.5v-312q0 -23 8.5 -43t23.5 -35t35 -23.5t43 -8.5v-93z" />
<glyph unicode=")" horiz-adv-x="284" d="M0 94q23 0 43 8.5t34.5 23t23 34.5t8.5 43v313q0 22 -8.5 42t-23 35t-34.5 23.5t-43 8.5v94q42 0 78.5 -16t64 -43.5t43.5 -64t17 -78.5v-317q-1 -41 -17 -77.5t-43.5 -63.5t-64 -43t-78.5 -16v94z" />
<glyph unicode="*" horiz-adv-x="296" d="M216 643l-59 -35l59 -35l-23 -40l-61 33v-68h-47v68l-60 -33l-24 40l59 35l-59 35l24 42l60 -35v69h47v-69l61 35l23 -42v0z" />
<glyph unicode="+" horiz-adv-x="456" d="M375 405v-94h-141v-141h-93v141h-141v94h141v140h93v-140h141v0z" />
<glyph unicode="," horiz-adv-x="174" d="M0 93h93v-93h-2l-91 -93v186v0z" />
<glyph unicode="-" horiz-adv-x="456" d="M375 311h-375v94h375v-94v0z" />
<glyph unicode="." horiz-adv-x="174" d="M93 93v-93h-93v93h93zM93 93v-93h-93v93h93z" />
<glyph unicode="/" horiz-adv-x="370" d="M189 719h101l-188 -719h-100l187 719v0z" />
<glyph unicode="0" horiz-adv-x="485" d="M404 200q0 -42 -16.5 -78.5t-44 -63.5t-64 -42.5t-78.5 -15.5t-78.5 16t-64 43t-43.5 63.5t-17 78.5v316q1 42 17 78.5t43.5 64t64 43.5t78.5 16t78.5 -15.5t64 -42.5t44 -63.5t16.5 -78.5v-319zM201 94q22 0 41.5 8t34 22.5t23.5 33.5t11 40v68v257q-2 21 -11 40 t-23.5 32.5t-34 21.5t-41.5 8q-23 0 -42.5 -8.5t-34.5 -23.5t-23.5 -34.5t-8.5 -41.5v-314q0 -22 8.5 -42t23.5 -35t34.5 -23.5t42.5 -8.5z" />
<glyph unicode="1" horiz-adv-x="237" d="M0 719h156v-719h-94v625h-62v94v0z" />
<glyph unicode="2" horiz-adv-x="487" d="M406 500q-2 -11 -6.5 -33.5t-24.5 -51.5q-9 -13 -31 -41t-50 -63l-58 -72.5t-56 -68.5t-43 -52.5t-19 -23.5h288v-94h-406v94l300 378l6 8q5 8 6 20v23q-1 21 -10 40t-23.5 32.5t-34 21.5t-41.5 8q-41 0 -71 -26.5t-37 -65.5h-93q3 39 20 73t44 59t62 39.5t75 14.5 q42 0 78.5 -15.5t64 -42.5t43.5 -63.5t17 -78.5v-19v0z" />
<glyph unicode="3" d="M333 359q34 -28 54 -68.5t20 -87.5q0 -42 -16 -78.5t-44 -64.5t-64.5 -44t-78.5 -16q-40 0 -75.5 14.5t-63 40t-44 59.5t-19.5 73h93q7 -39 37 -65.5t71 -26.5q22 0 42 8.5t35 23.5t23.5 34.5t8.5 41.5t-8.5 42t-22.5 34.5t-33.5 23t-41.5 9.5h-48v95h43h2q22 0 42 8.5 t35 23t23.5 34t8.5 41.5q0 23 -8.5 43t-23.5 35t-35 23.5t-42 8.5q-41 0 -71 -26.5t-37 -67.5h-93q3 40 20 74t44 59t62.5 39.5t75.5 14.5q42 0 78.5 -16t64.5 -43.5t44 -64.5t16 -79q0 -47 -20 -86.5t-54 -68.5z" />
<glyph unicode="4" horiz-adv-x="518" d="M437 187v-93h-62v-94h-94v94h-281v93l219 532h156v-532h62zM104 187h177v433z" />
<glyph unicode="5" horiz-adv-x="487" d="M406 203q0 -42 -16 -79t-43.5 -64.5t-64.5 -43.5t-79 -16q-41 0 -76.5 14.5t-62.5 40t-44 59.5t-20 73h95q5 -39 36 -65.5t72 -26.5q22 0 42 8.5t35 23.5t23.5 34.5t8.5 41.5v101q-1 21 -10 40t-24 32.5t-34.5 21.5t-40.5 8q-14 0 -30 -5.5t-31.5 -15t-28 -23.5 t-18.5 -32h-95v389h94h281v-94h-281v-158q23 16 51 24.5t58 8.5q42 0 78.5 -16t64 -43t43.5 -63.5t17 -77.5v-97v0z" />
<glyph unicode="6" d="M204 407q42 0 78.5 -16t64.5 -44t44 -64.5t16 -78.5q0 -43 -16 -80t-44 -64.5t-64.5 -43.5t-78.5 -16q-43 0 -80 16t-64.5 43.5t-43.5 64.5t-16 80q0 25 5.5 49t17.5 45l196 421h103l-146 -314q6 0 13 1t15 1zM204 94q22 0 42 8.5t35 23.5t23.5 35t8.5 43q0 22 -8.5 42 t-23.5 35t-35 23.5t-42 8.5q-23 0 -43 -8.5t-35 -23.5t-23.5 -35t-8.5 -42q0 -23 8.5 -43t23.5 -35t35 -23.5t43 -8.5z" />
<glyph unicode="7" horiz-adv-x="487" d="M0 719h406v-125l-239 -594h-106l253 625h-220v-94h-94v188v0z" />
<glyph unicode="8" horiz-adv-x="495" d="M334 371q37 -29 58.5 -71.5t21.5 -92.5q0 -43 -16.5 -81t-44.5 -66t-66 -44t-80 -16q-43 0 -81 16t-66 44t-44 66t-16 81q0 50 21 92.5t57 71.5q-31 27 -50 65t-19 84q0 41 15.5 77t42.5 62.5t63 42t77 15.5q40 0 76 -15.5t63 -42t42.5 -62.5t15.5 -77q0 -46 -19 -84 t-51 -65zM207 626q-45 0 -75.5 -30.5t-30.5 -75.5t30.5 -75.5t75.5 -30.5q21 0 40 8.5t33.5 22.5t22.5 33.5t8 41.5t-8 41.5t-22.5 33.5t-33.5 22.5t-40 8.5zM207 96q23 0 43 9t35 24t23.5 35t8.5 43t-8.5 43t-23.5 35t-35 24t-43 9q-24 0 -44 -9t-35 -24t-23.5 -35 t-8.5 -43t8.5 -43t23.5 -35t35 -24t44 -9z" />
<glyph unicode="9" d="M204 311q-42 0 -79 16.5t-65 44t-44 64.5t-16 79t16 79.5t44 65t65 43.5t79 16t79 -16t64.5 -43.5t43.5 -65t16 -79.5q0 -26 -6 -49.5t-16 -44.5l-197 -421h-103l146 313q-6 0 -12.5 -1t-14.5 -1zM204 625q-23 0 -43 -8.5t-35 -23.5t-23.5 -35t-8.5 -43t8.5 -43t23.5 -35 t35 -23.5t43 -8.5q22 0 42 8.5t35 23.5t23.5 35t8.5 43t-8.5 43t-23.5 35t-35 23.5t-42 8.5z" />
<glyph unicode=":" horiz-adv-x="174" d="M0 94v93h93v-93h-93zM0 404h93v-93h-93v93z" />
<glyph unicode=";" horiz-adv-x="174" d="M0 187h93v-93h-2l-91 -89v182zM91 400v-92h-91v92h91z" />
<glyph unicode="?" horiz-adv-x="489" d="M205 717q42 0 78.5 -16t64.5 -43.5t44 -64.5t16 -79q0 -35 -11.5 -66.5t-31.5 -56.5l-108 -177h-96v31l94 146l44 71q13 24 13 52q0 23 -8.5 43t-23 34.5t-34.5 23t-43 8.5q-41 0 -72 -26.5t-36 -67.5h-93q3 40 20 74t44 59.5t62.5 40t76.5 14.5zM161 95h96v-95h-96v95z " />
<glyph unicode="@" horiz-adv-x="800" d="M359 719q74 0 139.5 -28t114.5 -77t77.5 -114.5t28.5 -140.5v-18t-2 -18q-2 -7 -2 -13t-2 -13q-10 -41 -39 -68.5t-70 -35.5q-7 -2 -13 -3t-13 -1q-30 0 -55.5 12t-45.5 32q-20 -35 -55 -55t-78 -20q-32 0 -60.5 12t-50 33t-34 49t-12.5 60v94q0 33 12.5 61.5t33.5 49.5 t49.5 33t61.5 12t61.5 -12t50 -33t34 -49.5t12.5 -61.5v-83q2 -30 24 -50t52 -20q26 0 46 15.5t27 40.5q3 10 3 21v2q2 6 2 13.5v13.5q0 50 -15 94t-42 81.5t-64 64.5t-82 42t-94 15q-62 0 -116 -23t-94.5 -63.5t-63.5 -94.5t-23 -116q0 -61 23 -115t63.5 -94.5t94.5 -64 t116 -23.5t116 24t94 65l44 -45q-48 -48 -113.5 -77t-140.5 -29q-74 0 -139.5 28t-114.5 77t-77 114.5t-28 139.5q0 75 28 140.5t77 114.5t114.5 77t139.5 28zM437 406q0 39 -27 66.5t-66 27.5q-35 0 -61 -22t-31 -56v-104v-4q0 -39 27 -66.5t66 -27.5q35 0 61 22t31 57v107 z" />
<glyph unicode="A" horiz-adv-x="665" d="M461 0l-41 125h-275l-41 -125h-134l250 750h125l250 -750h-134zM187 250h191l-96 288z" />
<glyph unicode="B" horiz-adv-x="601" d="M0 0v750h281q45 0 85 -17t69.5 -46.5t47 -69.5t17.5 -86t-18 -86t-48 -70q30 -30 48 -69.5t18 -86.5q0 -45 -17.5 -85t-47 -69.5t-69.5 -47t-85 -17.5h-281zM125 625v-186h156q19 0 36 7.5t30 20t20.5 29t7.5 35.5t-7.5 36.5t-20.5 30t-30 20t-36 7.5h-156zM281 127 q19 0 36 7t30 19.5t20.5 29.5t7.5 36t-7.5 36t-20.5 30t-30 20t-36 7h-156v-185h156z" />
<glyph unicode="C" horiz-adv-x="603" d="M377 499q0 26 -10 49t-27 40t-40 26.5t-49 9.5t-49 -9.5t-40 -26.5t-26.5 -40t-9.5 -49v-251q0 -26 9.5 -49t26.5 -39.5t40 -26t49 -9.5q25 0 48 9.5t40 26t27 39.5t11 49h125q0 -52 -20 -97.5t-54 -79.5t-79.5 -53.5t-97.5 -19.5t-97.5 19.5t-79.5 53.5t-54 79.5 t-20 97.5v251q0 52 19.5 98t53.5 80t80 53.5t98 19.5t97.5 -19.5t79.5 -53.5t54 -80t20 -98h-125z" />
<glyph unicode="D" horiz-adv-x="601" d="M501 256v-7q0 -52 -20 -97.5t-54 -79t-79.5 -53t-96.5 -19.5v-2h-188h-63v752h125h126q51 0 96.5 -19.5t79.5 -53.5t54 -80t20 -98v-5v-238zM376 499q0 26 -10 49t-27 40t-39.5 27t-48.5 10h-126v-501h126v1q25 0 47.5 9.5t39.5 26t27 39.5t11 49v250z" />
<glyph unicode="E" horiz-adv-x="601" d="M500 625h-375v-188h250v-125h-250v-187h375v-125h-500v750h500v-125v0z" />
<glyph unicode="F" horiz-adv-x="601" d="M500 625h-375v-188h250v-125h-250v-312h-125v750h500v-125v0z" />
<glyph unicode="G" horiz-adv-x="601" d="M375 500q0 26 -10 48.5t-27 39.5t-39.5 27t-48.5 10t-48.5 -10t-39.5 -27t-27 -39.5t-10 -48.5v-250q0 -26 10 -48.5t27 -39t39.5 -26t48.5 -9.5q25 0 47.5 9.5t39.5 26t27 39t11 48.5h-125v125h250v-125q-1 -51 -21 -96.5t-53.5 -79t-79 -53t-96.5 -19.5t-96.5 19.5 t-79.5 53t-54 79t-20 96.5v250q0 52 19.5 97.5t53.5 79.5t79.5 53.5t97.5 19.5q51 0 96.5 -19.5t79.5 -53.5t54 -79.5t20 -97.5h-125z" />
<glyph unicode="H" horiz-adv-x="602" d="M375 750h125v-750h-125v312h-250v-312h-125v750h125v-313h250v313v0z" />
<glyph unicode="I" horiz-adv-x="226" d="M125 0h-125v750h125v-750v0z" />
<glyph unicode="J" horiz-adv-x="604" d="M502 750v-502h-1q0 -52 -19.5 -97.5t-53.5 -79.5t-79.5 -53.5t-97.5 -19.5t-98 19.5t-80 53.5t-53.5 79.5t-19.5 97.5h126q0 -26 9.5 -48.5t26.5 -39t40 -26.5t49 -10q25 0 48 10t39.5 26.5t26.5 39t10 48.5h2v502h125z" />
<glyph unicode="K" horiz-adv-x="600" d="M501 750l-224 -376l224 -376h-146l-153 254l-77 -130v-124h-125v752h125v-383l230 383h146v0z" />
<glyph unicode="L" horiz-adv-x="602" d="M125 125h375v-125h-500v750h125v-625v0z" />
<glyph unicode="M" horiz-adv-x="666" d="M438 750h126v-752h-126v395l-93 -269h-126l-94 266v-392h-125v752h125v-5l157 -444l156 445v4v0z" />
<glyph unicode="N" horiz-adv-x="602" d="M375 750h125v-750h-125v0l-250 474v-474h-125v750h125v0l250 -474v474v0z" />
<glyph unicode="O" horiz-adv-x="604" d="M502 248q0 -52 -20 -97.5t-54 -79.5t-79.5 -53.5t-97.5 -19.5t-97.5 19.5t-79.5 53.5t-54 79.5t-20 97.5v251q0 52 19.5 98t53.5 80t80 53.5t98 19.5t97.5 -19.5t79.5 -53.5t54 -80t20 -98v-251zM377 499q0 26 -10 49t-27 40t-40 26.5t-49 9.5t-49 -9.5t-40 -26.5 t-26.5 -40t-9.5 -49v-251q0 -26 9.5 -49t26.5 -39.5t40 -26t49 -9.5q25 0 48 9.5t40 26t27 39.5t11 49v251z" />
<glyph unicode="P" horiz-adv-x="587" d="M250 748q51 0 96.5 -19.5t79.5 -53t54 -79t20 -96.5q0 -52 -20 -97.5t-54 -79.5t-79.5 -53.5t-96.5 -19.5h-125v-250h-125v750h250v-2zM250 375q26 0 48.5 10t39.5 27t27 39.5t10 48.5q0 25 -10 47.5t-27 39.5t-39.5 26.5t-48.5 9.5v2h-125v-250h125z" />
<glyph unicode="Q" horiz-adv-x="604" d="M377 -129l-68 134q-14 -4 -29 -5.5t-29 -1.5q-52 0 -97.5 19.5t-79.5 53.5t-54 79.5t-20 97.5v251q0 52 19.5 98t53.5 80t80 53.5t98 19.5t97.5 -19.5t79.5 -53.5t54 -80t20 -98v-251q-1 -58 -25 -108t-65 -84l90 -185h-125zM126 248q0 -26 9.5 -49t26.5 -39.5t40 -26 t49 -9.5q25 0 48 9.5t40 26t27 39.5t11 49v251q0 26 -10 49t-27 40t-40 26.5t-49 9.5t-49 -9.5t-40 -26.5t-26.5 -40t-9.5 -49v-251z" />
<glyph unicode="R" horiz-adv-x="582" d="M375 0l-113 250h-12h-125v-250h-125v750h250v-2q51 0 96.5 -19.5t79.5 -53t54 -79t20 -96.5q0 -71 -35.5 -128.5t-92.5 -90.5l128 -281h-125zM250 375q26 0 48.5 10t39.5 27t27 39.5t10 48.5q0 25 -10 47.5t-27 39.5t-39.5 26.5t-48.5 9.5v2h-125v-250h125z" />
<glyph unicode="S" horiz-adv-x="526" d="M311 400q30 -14 49.5 -33.5t30.5 -41t16.5 -43.5t6.5 -39t0.5 -27.5t-0.5 -9.5v-2q-3 -45 -23.5 -83t-52.5 -65t-72.5 -41.5t-85.5 -11.5q-33 3 -63 14.5t-54.5 30.5t-43 44.5t-28.5 54.5l116 45q9 -26 30.5 -43.5t50.5 -20.5q19 -1 37 5t32 18t22.5 28t9.5 36 q1 32 -14 51.5t-40.5 33.5t-59.5 26t-71 29q-11 5 -29 19.5t-35 37.5t-28.5 56t-10.5 76v5q4 45 24.5 83.5t52.5 65.5t73 41t86 11q66 -5 116 -45.5t73 -98.5l-118 -45q-8 26 -30 44t-51 20q-19 1 -36.5 -4.5t-31 -17.5t-22.5 -28.5t-11 -35.5q-1 -32 13.5 -51.5t40 -33 t59.5 -25.5t72 -29z" />
<glyph unicode="T" horiz-adv-x="602" d="M500 750v-125h-188v-625h-125v625h-187v125h500v0z" />
<glyph unicode="U" horiz-adv-x="604" d="M502 248q0 -52 -20 -97.5t-54 -79.5t-79.5 -53.5t-97.5 -19.5t-97.5 19.5t-79.5 53.5t-54 79.5t-20 97.5v247v255h126v-267v-235q0 -26 9.5 -49t26.5 -39.5t40 -26t49 -9.5q25 0 48 9.5t40 26t27 39.5t11 49v235v267h125v-258v-244z" />
<glyph unicode="V" horiz-adv-x="602" d="M5 750h125l125 -500l125 500h125l-187 -750h-125l-188 750v0z" />
<glyph unicode="W" horiz-adv-x="935" d="M730 750h125l-187 -750h-125l-125 500l-125 -500h-125l-188 750h125l125 -500l125 500h125l125 -500l125 500v0z" />
<glyph unicode="X" horiz-adv-x="594" d="M505 750l-187 -375l187 -375h-125l-125 250l-125 -250h-125l188 375l-188 375h125l125 -250l125 250h125v0z" />
<glyph unicode="Y" horiz-adv-x="604" d="M379 750h126l-188 -376v-376h-126v376l-188 376h126l125 -251l125 251v0z" />
<glyph unicode="Z" horiz-adv-x="602" d="M500 750v-125l-361 -500h361v-125h-500v125l363 500h-363v125h500v0z" />
<glyph unicode="[" horiz-adv-x="268" d="M94 94h93v-94h-187v625v0v94v0v0h94v0h93v-94h-93v-531v0z" />
<glyph unicode="]" horiz-adv-x="268" d="M94 94v531h-94v94h94v0h93v0v0v-94v0v-625h-187v94h94v0z" />
<glyph unicode="_" horiz-adv-x="291" d="M211 0h-211v94h211v-94v0z" />
<glyph unicode="a" horiz-adv-x="478" d="M397 198v-200h-94v32q-48 -30 -110 -30q-57 0 -103.5 27.5t-72.5 75.5q-1 3 -6 16t-7 32.5t0.5 42.5t16.5 46q14 25 31.5 39t34 21t30.5 9t22 2h164v23q-2 21 -11 40t-23.5 33t-34 22t-41.5 8q-26 0 -49.5 -12t-37.5 -32l-69 65q29 34 68.5 53.5t87.5 19.5q42 0 79 -15.5 t64.5 -42.5t44 -63.5t16.5 -78.5v-133zM303 217h-153q-16 -1 -27 -6q-10 -5 -18 -14.5t-8 -27.5t9.5 -32t24 -23.5t31.5 -14.5t31 -5q23 -2 44 7q18 7 36 25t28 53q0 2 1 4q0 2 0.5 3.5t0.5 3.5v27z" />
<glyph unicode="b" d="M407 198q-1 -42 -17.5 -78t-44 -62.5t-64 -42t-77.5 -15.5q-30 0 -58.5 7.5t-51.5 23.5v-33h-94v202v131v419h94v-251q23 16 51.5 24t58.5 8q42 0 78.5 -15.5t64 -42.5t43.5 -63.5t17 -78.5v-133zM313 264v70q-1 21 -10 40t-24 33t-34.5 22t-40.5 8q-23 0 -43 -8.5 t-35 -23.5t-23.5 -34.5t-8.5 -41.5v-127q0 -22 8.5 -41.5t23.5 -34.5t35 -23.5t43 -8.5q21 0 40.5 8t34.5 22t24 32.5t10 40.5v67z" />
<glyph unicode="c" d="M407 185q-3 -39 -20 -73.5t-44 -59.5t-62.5 -39.5t-75.5 -14.5q-42 0 -79 15.5t-65 43t-44 64t-17 78.5v131q1 42 17 78.5t44 64t65 43t79 15.5q40 0 76 -14.5t63 -40t44.5 -59.5t20.5 -74h-96q-5 41 -35.5 67.5t-72.5 26.5q-23 0 -43.5 -8.5t-35.5 -23.5t-23.5 -34.5 t-8.5 -41.5v-128q0 -22 8.5 -41.5t23.5 -34.5t35.5 -23.5t43.5 -8.5q20 0 38.5 7t33 19.5t24 29t12.5 36.5h94z" />
<glyph unicode="d" horiz-adv-x="490" d="M0 330q1 42 17 78.5t43.5 63.5t64.5 42.5t79 15.5q30 0 58.5 -7.5t51.5 -23.5v251h94v-420v-131v-202h-94v33q-23 -16 -51.5 -24t-58.5 -8q-42 0 -79 15.5t-64.5 42t-43.5 63t-17 78.5v133zM94 195q1 -21 10.5 -40t24 -33t34 -22t41.5 -8t42 8.5t35 23.5t24 34.5t9 42.5 v127q0 22 -9 41.5t-24 34.5t-35 23.5t-42 8.5q-45 0 -76 -29.5t-34 -73.5v-70v-68z" />
<glyph unicode="e" horiz-adv-x="486" d="M311 217h-219v-15q0 -22 8.5 -41.5t23.5 -34.5t35 -23.5t43 -8.5q22 0 42 8.5t34 22.5l58 -76q-57 -49 -134 -49q-42 0 -79 15.5t-64.5 42.5t-43.5 63.5t-17 78.5v131q1 42 17 78.5t43.5 63.5t64.5 42.5t79 15.5t78.5 -15.5t64 -42.5t44 -63.5t16.5 -78.5v-114h-94z M92 311h219v23q-1 21 -10 40t-23.5 33t-34 22t-41.5 8q-23 0 -43 -8.5t-35 -23.5t-23.5 -34.5t-8.5 -41.5v-18z" />
<glyph unicode="f" horiz-adv-x="332" d="M250 656q-20 0 -37 -7.5t-29.5 -20.5t-20 -29.5t-7.5 -35.5v-2v-9v-22h94v-94h-94v-36v-401h-94v437h-62v94h62v31v2q0 38 14.5 72t40 59.5t60 40.5t73.5 15v-94v0z" />
<glyph unicode="g" horiz-adv-x="492" d="M410 -10v-14q-1 -41 -17.5 -77t-44 -63t-64 -42.5t-78.5 -15.5q-39 0 -73.5 14t-62.5 38l57 75q30 -32 79 -32q44 0 75.5 29.5t35.5 72.5v14v42q-50 -32 -111 -32q-42 0 -79 15.5t-64.5 43t-43.5 64t-17 78.5v131q1 42 17 78.5t43.5 63.5t64.5 42.5t79 15.5q62 0 111 -31 v31h93v-200v-133v-208zM206 93q22 0 41 8t34 22t24.5 32t11.5 39v142q-2 21 -11.5 39.5t-24.5 32.5t-34 22t-41 8q-23 0 -43 -8.5t-35 -23.5t-23.5 -35t-8.5 -42v-128q0 -22 8.5 -41.5t23.5 -34.5t35 -23.5t43 -8.5z" />
<glyph unicode="h" d="M406 200v-2v-198h-94v260v6v7v36v26q-1 21 -10 40t-24 32.5t-34.5 21.5t-40.5 8q-23 0 -43 -8.5t-34.5 -23t-23 -34t-8.5 -41.5v-21v-309h-94v201v131v418h94v-250q23 16 51 23.5t58 7.5q42 0 78.5 -15.5t64 -42.5t43.5 -63t17 -78v-132z" />
<glyph unicode="i" horiz-adv-x="175" d="M0 0v531h94v-531h-94zM0 812h95v-93h-95v93z" />
<glyph unicode="j" horiz-adv-x="238" d="M157 -4v-14h-2q-1 -35 -13 -66t-32.5 -56.5t-48.5 -43t-61 -25.5v98q25 13 42.5 36.5t19.5 54.5v14v43v155v7v141v5v155v31h95v-198v-131v-206zM155 720h-93v93h93v-93z" />
<glyph unicode="k" horiz-adv-x="496" d="M314 0l-127 269l-93 -113v-156h-94v750h94v-446l187 227h125l-153 -182l164 -349h-103v0z" />
<glyph unicode="l" horiz-adv-x="240" d="M94 193q2 -32 19.5 -56.5t45.5 -36.5v-100q-33 7 -62 25t-50 44t-33.5 58t-13.5 67v13v1v542h94v-542v-15v0z" />
<glyph unicode="m" horiz-adv-x="800" d="M719 200v-9v-191h-94v226v40v69q-3 43 -33.5 72.5t-75.5 29.5q-23 0 -43 -8.5t-35 -23t-23.5 -34t-8.5 -41.5v-16v-114v-2v-198h-94v260v6v7v36v26q-1 21 -10 40t-23.5 32.5t-34 21.5t-41.5 8q-23 0 -43 -8.5t-34.5 -23t-23 -34t-8.5 -41.5v-21v-309h-94v201v131v199h94 v-31q23 16 51 23.5t58 7.5q48 0 88.5 -19.5t67.5 -53.5q28 34 68.5 53.5t88.5 19.5q42 0 78.5 -15.5t64 -42.5t43.5 -63t17 -78v-132z" />
<glyph unicode="n" horiz-adv-x="487" d="M406 200v-2v-198h-94v260v6v7v36v26q-1 21 -10 40t-24 32.5t-34.5 21.5t-40.5 8q-23 0 -43 -8.5t-34.5 -23t-23 -34t-8.5 -41.5v-21v-309h-94v201v129v201h94v-31q23 16 51 23.5t58 7.5q42 0 78.5 -15.5t64 -42.5t43.5 -63t17 -78v-132z" />
<glyph unicode="o" horiz-adv-x="486" d="M405 198q-1 -42 -17.5 -78t-43.5 -62.5t-63.5 -42t-78.5 -15.5t-79 15.5t-64.5 42.5t-43.5 63.5t-17 78.5v129q1 42 17 79t43.5 64.5t64.5 43t79 15.5t78.5 -15.5t64 -42.5t44 -63.5t16.5 -78.5v-133zM202 94q22 0 41.5 8t34 22t23.5 32.5t10 40.5v67v70q-1 21 -10 40 t-23.5 33t-34 22t-41.5 8q-23 0 -43 -8.5t-35 -23.5t-23.5 -34.5t-8.5 -41.5v-127q0 -22 8.5 -41.5t23.5 -34.5t35 -23.5t43 -8.5z" />
<glyph unicode="p" horiz-adv-x="487" d="M406 200q-1 -42 -17 -78.5t-43.5 -63.5t-64 -42.5t-78.5 -15.5q-30 0 -58 7.5t-51 23.5v-250h-94v419v130v201h94v-33q23 16 51 23.5t58 7.5q42 0 78.5 -15t63.5 -41.5t43.5 -62.5t17.5 -78v-132zM312 333q-1 22 -10 40.5t-23.5 32.5t-34 22t-41.5 8q-23 0 -43 -8.5 t-34.5 -23.5t-23 -34.5t-8.5 -41.5v-127q0 -22 8.5 -41.5t23 -34t34.5 -23t43 -8.5q22 0 41.5 8t34 21.5t23.5 32.5t10 40v70v67z" />
<glyph unicode="q" horiz-adv-x="486" d="M-2 332q1 42 18 78.5t44.5 63t64 42t77.5 15.5q62 0 109 -32v33h94v-201v-131v-419h-94v250q-23 -16 -51 -23.5t-58 -7.5q-42 0 -79 15.5t-64.5 42.5t-43.5 63.5t-17 78.5v132zM92 266v-69q3 -44 34.5 -73.5t75.5 -29.5q23 0 43 8.5t34.5 23.5t23 34.5t8.5 41.5v127 q0 22 -8.5 41.5t-23 34.5t-34.5 23.5t-43 8.5q-22 0 -41 -8t-34 -22t-24.5 -33t-10.5 -40v-68z" />
<glyph unicode="r" horiz-adv-x="412" d="M204 531q36 0 68.5 -11.5t58.5 -32.5l-68 -68q-12 10 -27 14t-32 4q-23 0 -43 -8.5t-35 -23.5t-23.5 -34.5t-8.5 -41.5v-115v-214h-94v200v131v201h94v-33q23 16 51.5 24t58.5 8z" />
<glyph unicode="s" horiz-adv-x="381" d="M292 145q-3 -32 -17 -59t-36.5 -46.5t-51.5 -29.5t-61 -8q-47 4 -82 32t-51 70l83 33q7 -20 21.5 -32.5t35.5 -14.5q13 -1 25.5 3.5t22.5 12.5t16 20t7 26q1 23 -9.5 36.5t-28.5 23.5t-42 18.5t-50 20.5q-8 4 -20.5 13.5t-24.5 26t-20.5 39.5t-6.5 54v3q3 32 17 59.5 t36.5 46.5t51.5 29t61 8q47 -4 83 -31.5t50 -69.5l-83 -33q-5 20 -21 32t-36 14q-28 2 -48.5 -16.5t-22.5 -45.5q-1 -23 9.5 -36.5t28.5 -23t41.5 -17.5t49.5 -20q32 -14 48 -37t21 -46q6 -26 4 -55z" />
<glyph unicode="t" horiz-adv-x="334" d="M157 467v-54v-4t2 -3v-160l-2 2v-42v-14q2 -32 19.5 -56.5t45.5 -35.5v-100q-33 7 -62 25t-50 44t-33.5 58t-13.5 67v12v208v53h-63v94h63v189h94l2 -32v-157h93v-94h-95z" />
<glyph unicode="u" horiz-adv-x="487" d="M0 333v2v196h94v-260v-5v-6v-38v-24q1 -21 10 -40t23.5 -33.5t34 -22.5t41.5 -8q23 0 43 8.5t34.5 23t23 34.5t8.5 43v19v309h94v-199v-131v-201h-94v33q-23 -16 -51 -24.5t-58 -8.5q-42 0 -78.5 16t-64 43t-43.5 63.5t-17 78.5v132z" />
<glyph unicode="v" d="M2 531h93l113 -357l106 357h94l-156 -531h-94l-156 531v0z" />
<glyph unicode="w" horiz-adv-x="800" d="M627 531h93l-156 -531h-94l-109 373l-109 -373h-94l-156 531h93l113 -357l106 357h94l115 -357l104 357v0z" />
<glyph unicode="x" horiz-adv-x="539" d="M458 531l-175 -264l175 -267h-107l-122 184l-121 -184h-108l174 267l-174 264h111l118 -180l118 180h111v0z" />
<glyph unicode="y" horiz-adv-x="487" d="M407 531l-155 -494l-45 -125q-12 -35 -36 -57t-47 -36q-28 -16 -59 -24v98q20 7 34.5 19t22.5 23q10 13 15 28l19 74l-155 494h96l107 -341l107 341h96z" />
<glyph unicode="z" horiz-adv-x="455" d="M374 531v-94l-257 -343h257v-94h-374v94v0l258 343h-258v94h374v0z" />
<glyph unicode="&#x2018;" horiz-adv-x="174" d="M0 719h93v-92h-1l-92 -91v183v0z" />
<glyph unicode="&#x2019;" horiz-adv-x="174" d="M93 719v-182l-91 91h-2v91h93v0z" />
<glyph unicode="&#x201c;" horiz-adv-x="326" d="M0 536v183h93v-92h-2zM152 719h93v-92h-1l-92 -91v183z" />
<glyph unicode="&#x201d;" horiz-adv-x="326" d="M245 719v-182l-91 91h-2v91h93zM0 719h93v-182l-91 91h-2v91z" />
<glyph unicode="&#x2030;" horiz-adv-x="833" />
<glyph unicode="&#x25fc;" horiz-adv-x="530" d="M0 530h530v-530h-530v530z" />
</font>
</defs>
</svg>
